<svg width="1327" height="316" viewBox="0 0 1327 316" fill="none" xmlns="http://www.w3.org/2000/svg">
<path fill-rule="evenodd" clip-rule="evenodd" d="M1300.19 315.703H1250.8C1244.88 315.938 1238.97 314.944 1233.45 312.784C1227.93 310.624 1222.91 307.344 1218.7 303.149C1214.5 298.953 1211.2 293.933 1209.02 288.401C1206.83 282.869 1205.81 276.944 1206.01 270.996V63.8841H1240.41V254.188C1240.41 263.419 1241.74 272.807 1247.61 276.172C1253.14 278.165 1259.03 278.882 1264.87 278.269H1296.4V63.8841H1330.78V315.703H1300.19ZM1300.81 31.5173L1283.74 32.0388H1253.6L1236.63 31.6058C1236.03 31.3964 1235.41 31.2964 1234.78 31.3106C1218.44 29.4802 1220.27 10.9202 1220.27 -0.0917969H1316.53C1316.55 11.2154 1317.67 29.8246 1300.81 31.5173ZM1120.03 315.703H1078.5C1072.58 315.931 1066.69 314.933 1061.17 312.772C1055.66 310.611 1050.65 307.334 1046.45 303.143C1042.25 298.953 1038.96 293.94 1036.78 288.416C1034.59 282.892 1033.56 276.976 1033.75 271.035V108.798C1033.56 102.856 1034.59 96.9375 1036.77 91.4112C1038.95 85.885 1042.25 80.8694 1046.44 76.677C1050.64 72.4847 1055.65 69.2053 1061.17 67.0433C1066.68 64.8813 1072.58 63.8829 1078.5 64.1104H1120.03C1125.94 63.8801 1131.85 64.8764 1137.36 67.0372C1142.88 69.198 1147.89 72.4769 1152.09 76.6696C1156.29 80.8623 1159.59 85.8788 1161.77 91.4064C1163.96 96.934 1164.98 102.854 1164.79 108.798V271.045C1164.98 276.987 1163.95 282.904 1161.76 288.428C1159.58 293.952 1156.28 298.965 1152.08 303.154C1147.88 307.344 1142.87 310.62 1137.36 312.779C1131.84 314.938 1125.94 315.934 1120.03 315.703ZM1130.41 125.341C1130.41 116.13 1129.08 106.731 1123.21 103.366C1117.68 101.381 1111.77 100.672 1105.93 101.289H1092.6C1086.76 100.672 1080.86 101.382 1075.33 103.366C1069.45 106.731 1068.13 116.159 1068.13 125.341V254.129C1068.13 263.35 1069.44 272.738 1075.33 276.113C1080.86 278.078 1086.76 278.784 1092.6 278.18H1105.93C1111.77 278.785 1117.67 278.079 1123.21 276.113C1129.09 272.738 1130.41 263.32 1130.41 254.129V125.341ZM951.734 213.742H906.167V315.713H871.771V64.0907H951.734C957.65 63.8618 963.55 64.8592 969.066 67.0206C974.582 69.182 979.596 72.4611 983.794 76.6536C987.993 80.8462 991.287 85.8622 993.471 91.3891C995.654 96.9161 996.681 102.835 996.487 108.778V169.044C996.683 174.988 995.657 180.908 993.474 186.436C991.291 191.965 987.997 196.982 983.798 201.175C979.599 205.369 974.585 208.649 969.069 210.811C963.552 212.973 957.651 213.971 951.734 213.742ZM962.091 125.37C962.091 116.13 960.749 106.741 954.909 103.395C949.388 101.397 943.488 100.68 937.652 101.299H906.167V176.464H937.623C943.468 177.081 949.376 176.368 954.909 174.378C960.788 171.032 962.091 161.634 962.091 152.443V125.38V125.37ZM791.74 315.713H757.325V101.289H712.121V63.8939H836.954V101.289H791.74V315.703V315.713ZM643.497 315.713H608.65C602.737 315.939 596.841 314.94 591.328 312.779C585.816 310.617 580.806 307.34 576.61 303.15C572.413 298.96 569.121 293.947 566.937 288.424C564.753 282.9 563.725 276.985 563.916 271.045V108.847C563.727 102.908 564.756 96.994 566.94 91.472C569.125 85.9499 572.417 80.9385 576.613 76.7494C580.81 72.5604 585.819 69.2835 591.331 67.1227C596.842 64.9618 602.738 63.9632 608.65 64.1891H643.497C649.409 63.9632 655.304 64.9618 660.816 67.1227C666.327 69.2835 671.337 72.5604 675.533 76.7494C679.729 80.9385 683.022 85.9499 685.206 91.472C687.391 96.994 688.42 102.908 688.23 108.847V129.838H653.864V125.341C653.864 116.12 652.502 106.731 646.671 103.366C641.149 101.39 635.255 100.684 629.425 101.299H622.732C616.905 100.683 611.014 101.389 605.495 103.366C599.615 106.731 598.312 116.159 598.312 125.341V254.148C598.312 263.369 599.605 272.748 605.495 276.123C611.018 278.083 616.905 278.785 622.732 278.18H629.425C635.254 278.784 641.145 278.081 646.671 276.123C652.551 272.748 653.864 263.33 653.864 254.148V249.966H688.23V271.035C688.422 276.975 687.393 282.891 685.209 288.414C683.026 293.937 679.733 298.95 675.537 303.14C671.341 307.33 666.331 310.608 660.818 312.769C655.306 314.931 649.41 315.929 643.497 315.703V315.713ZM482.298 212.521H426.442V315.29H391.831V63.8447H426.442V175.047H482.298V63.8447H516.674V315.28H482.298V212.512V212.521ZM299.776 315.713H258.227C252.314 315.939 246.417 314.94 240.905 312.779C235.393 310.617 230.383 307.34 226.187 303.15C221.99 298.96 218.698 293.947 216.514 288.424C214.33 282.9 213.302 276.985 213.493 271.045V108.798C213.299 102.857 214.325 96.9392 216.508 91.4136C218.691 85.8881 221.983 80.873 226.179 76.6808C230.376 72.4885 235.387 69.209 240.9 67.0463C246.414 64.8837 252.312 63.8843 258.227 64.1104H299.776C305.693 63.8801 311.595 64.8764 317.112 67.0372C322.629 69.198 327.644 72.4769 331.843 76.6696C336.043 80.8623 339.338 85.8788 341.522 91.4064C343.706 96.934 344.734 102.854 344.539 108.798V271.045C344.729 276.987 343.699 282.904 341.513 288.428C339.327 293.952 336.032 298.965 331.832 303.154C327.633 307.344 322.62 310.62 317.105 312.779C311.59 314.938 305.691 315.934 299.776 315.703V315.713ZM310.154 125.37C310.154 116.13 308.811 106.741 302.951 103.395C297.43 101.397 291.53 100.681 285.694 101.299H272.211C266.375 100.68 260.475 101.396 254.954 103.395C249.074 106.741 247.752 116.13 247.752 125.37V254.129C247.752 263.36 249.074 272.748 254.954 276.104C260.48 278.081 266.375 278.794 272.211 278.19H285.694C291.53 278.793 297.425 278.08 302.951 276.104C308.831 272.748 310.154 263.31 310.154 254.129V125.36V125.37ZM33.6857 278.278H36.0768V108.601C35.8781 102.652 36.9032 96.7247 39.0881 91.1908C41.2729 85.6569 44.5705 80.6348 48.775 76.4384C52.9795 72.2419 58.0004 68.9612 63.5242 66.8011C69.048 64.641 74.956 63.648 80.8792 63.8841H160.871V278.269H163.576C185.261 278.269 195.482 294.88 195.041 315.664H2.20057C1.7694 294.88 11.9999 278.269 33.6857 278.269V278.278ZM70.3645 278.278H126.446V101.289H94.8138C88.9728 100.666 83.0671 101.376 77.5376 103.366C71.658 106.731 70.3351 116.159 70.3351 125.36V278.269L70.3645 278.278Z" fill="#35B8FC"/>
</svg>
